<svg width="17" height="16" viewBox="0 0 17 16" fill="none" xmlns="http://www.w3.org/2000/svg">
<g id="copy-07">
<g id="Icon">
<path d="M1.83334 7.46683C1.83334 6.72009 1.83334 6.34672 1.97866 6.06151C2.10649 5.81063 2.31047 5.60665 2.56135 5.47882C2.84656 5.3335 3.21993 5.3335 3.96667 5.3335H9.03334C9.78007 5.3335 10.1534 5.3335 10.4387 5.47882C10.6895 5.60665 10.8935 5.81063 11.0213 6.06151C11.1667 6.34672 11.1667 6.72009 11.1667 7.46683V12.5335C11.1667 13.2802 11.1667 13.6536 11.0213 13.9388C10.8935 14.1897 10.6895 14.3937 10.4387 14.5215C10.1534 14.6668 9.78007 14.6668 9.03334 14.6668H3.96667C3.21993 14.6668 2.84656 14.6668 2.56135 14.5215C2.31047 14.3937 2.10649 14.1897 1.97866 13.9388C1.83334 13.6536 1.83334 13.2802 1.83334 12.5335V7.46683Z" fill="#9747FF"/>
<path d="M7.5 1.33536C7.04997 1.34146 6.7798 1.36751 6.56135 1.47882C6.31047 1.60665 6.10649 1.81063 5.97866 2.06151C5.86735 2.27996 5.8413 2.55013 5.8352 3.00016M13.5 1.33536C13.95 1.34146 14.2202 1.36751 14.4387 1.47882C14.6895 1.60665 14.8935 1.81063 15.0213 2.06151C15.1327 2.27996 15.1587 2.55013 15.1648 3.00015M15.1648 9.00015C15.1587 9.45019 15.1327 9.72036 15.0213 9.93882C14.8935 10.1897 14.6895 10.3937 14.4387 10.5215C14.2202 10.6328 13.95 10.6589 13.5 10.665M15.1667 5.33349V6.66682M9.83337 1.3335H11.1666M3.96667 14.6668H9.03334C9.78007 14.6668 10.1534 14.6668 10.4387 14.5215C10.6895 14.3937 10.8935 14.1897 11.0213 13.9388C11.1667 13.6536 11.1667 13.2802 11.1667 12.5335V7.46683C11.1667 6.72009 11.1667 6.34672 11.0213 6.06151C10.8935 5.81063 10.6895 5.60665 10.4387 5.47882C10.1534 5.3335 9.78007 5.3335 9.03334 5.3335H3.96667C3.21993 5.3335 2.84656 5.3335 2.56135 5.47882C2.31047 5.60665 2.10649 5.81063 1.97866 6.06151C1.83334 6.34672 1.83334 6.72009 1.83334 7.46683V12.5335C1.83334 13.2802 1.83334 13.6536 1.97866 13.9388C2.10649 14.1897 2.31047 14.3937 2.56135 14.5215C2.84656 14.6668 3.21993 14.6668 3.96667 14.6668Z" stroke="#9747FF" stroke-width="1.5" stroke-linecap="round" stroke-linejoin="round"/>
</g>
<path id="Icon_2" d="M4.5 9.66667L5.83333 11L8.83333 8" stroke="white" stroke-width="1.5" stroke-linecap="round" stroke-linejoin="round"/>
</g>
</svg>
