<svg width="22" height="18" viewBox="0 0 22 18" fill="none" xmlns="http://www.w3.org/2000/svg">
<path fill-rule="evenodd" clip-rule="evenodd" d="M5.57231 14.9962C5.97942 15.143 6.42857 15.2903 6.91941 15.4263C6.05471 16.2555 4.71429 17.4167 4.71429 17.4167C0.551511 17.2949 0 14.1462 0 14.1462C0 8.54449 2.71231 1.82679 2.71231 1.82679C5.42461 -0.052062 8.00507 0.000144704 8.00507 0.000144704L8.24403 1.48428C8.24403 1.48428 9.95931 1.31533 11 1.30625C12.0407 1.29717 13.5737 1.43777 13.5737 1.43777L13.9948 0.00026375C13.9948 0.00026375 16.5753 -0.0520612 19.2876 1.82691C19.2876 1.82691 22 8.54449 22 14.1462C22 14.1462 21.4484 17.2949 17.2857 17.4167C17.2857 17.4167 16.0341 16.2765 15.2066 15.4549C15.641 15.3317 16.08 15.1847 16.5254 15.0124C17.2362 14.7675 18.0185 14.4135 18.8345 13.9172L17.9702 12.7051C17.2477 13.1446 16.5664 13.4503 15.9629 13.6571L15.953 13.6606L15.9452 13.6634L15.9319 13.6684C15.0417 14.0139 14.1952 14.2409 13.3732 14.3702L13.3604 14.3723C11.6662 14.6657 10.1092 14.5854 8.77324 14.3553C7.75823 14.1741 6.88286 13.9106 6.14429 13.6444C5.40529 13.3773 4.773 13.0948 4.16116 12.6993L3.26006 13.8883C4.00801 14.3718 4.76365 14.7039 5.57231 14.9962ZM9.16667 8.25C9.16667 9.26252 8.34586 10.0833 7.33333 10.0833C6.32081 10.0833 5.5 9.26252 5.5 8.25C5.5 7.23748 6.32081 6.41667 7.33333 6.41667C8.34586 6.41667 9.16667 7.23748 9.16667 8.25ZM14.6667 10.0833C15.6792 10.0833 16.5 9.26252 16.5 8.25C16.5 7.23748 15.6792 6.41667 14.6667 6.41667C13.6541 6.41667 12.8333 7.23748 12.8333 8.25C12.8333 9.26252 13.6541 10.0833 14.6667 10.0833Z" fill="white"/>
</svg>
