<svg width="32" height="32" viewBox="0 0 32 32" fill="none" xmlns="http://www.w3.org/2000/svg">
<g id="home-line">
<path id="Icon" d="M12 21H20M15.0177 6.764L8.23539 12.0391C7.78202 12.3917 7.55534 12.5681 7.39203 12.7889C7.24737 12.9844 7.1396 13.2048 7.07403 13.4391C7 13.7035 7 13.9907 7 14.5651V21.8C7 22.9201 7 23.4801 7.21799 23.908C7.40973 24.2843 7.71569 24.5903 8.09202 24.782C8.51984 25 9.07989 25 10.2 25H21.8C22.9201 25 23.4802 25 23.908 24.782C24.2843 24.5903 24.5903 24.2843 24.782 23.908C25 23.4801 25 22.9201 25 21.8V14.5651C25 13.9907 25 13.7035 24.926 13.4391C24.8604 13.2048 24.7526 12.9844 24.608 12.7889C24.4447 12.5681 24.218 12.3917 23.7646 12.0391L16.9823 6.764C16.631 6.49075 16.4553 6.35412 16.2613 6.3016C16.0902 6.25526 15.9098 6.25526 15.7387 6.3016C15.5447 6.35412 15.369 6.49075 15.0177 6.764Z" stroke="#0E0E2C" stroke-width="2" stroke-linecap="round" stroke-linejoin="round"/>
</g>
</svg>
