<svg width="16" height="16" viewBox="0 0 16 16" fill="none" xmlns="http://www.w3.org/2000/svg">
<path d="M2.84804 13.8186L7.24573 9.42091C7.50974 9.1569 7.64175 9.0249 7.79397 8.97544C7.92786 8.93193 8.0721 8.93193 8.20599 8.97544C8.35821 9.0249 8.49022 9.15691 8.75423 9.42091L13.1226 13.7893M9.33331 10L11.2457 8.08758C11.5097 7.82357 11.6417 7.69156 11.794 7.6421C11.9279 7.5986 12.0721 7.5986 12.206 7.6421C12.3582 7.69156 12.4902 7.82357 12.7542 8.08758L14.6666 10M6.66665 6C6.66665 6.73638 6.06969 7.33333 5.33331 7.33333C4.59693 7.33333 3.99998 6.73638 3.99998 6C3.99998 5.26362 4.59693 4.66667 5.33331 4.66667C6.06969 4.66667 6.66665 5.26362 6.66665 6ZM4.53331 14H11.4666C12.5868 14 13.1468 14 13.5746 13.782C13.951 13.5903 14.2569 13.2843 14.4487 12.908C14.6666 12.4802 14.6666 11.9201 14.6666 10.8V5.2C14.6666 4.0799 14.6666 3.51984 14.4487 3.09202C14.2569 2.71569 13.951 2.40973 13.5746 2.21799C13.1468 2 12.5868 2 11.4666 2H4.53331C3.41321 2 2.85316 2 2.42533 2.21799C2.04901 2.40973 1.74305 2.71569 1.5513 3.09202C1.33331 3.51984 1.33331 4.07989 1.33331 5.2V10.8C1.33331 11.9201 1.33331 12.4802 1.5513 12.908C1.74305 13.2843 2.04901 13.5903 2.42533 13.782C2.85316 14 3.41321 14 4.53331 14Z" stroke="#8C8CA1" stroke-width="1.5" stroke-linecap="round" stroke-linejoin="round"/>
</svg>
