<svg width="16" height="17" viewBox="0 0 16 17" fill="none" xmlns="http://www.w3.org/2000/svg">
<path d="M6.00016 6.49998H6.00683M10.0002 10.5H10.0068M10.6668 5.83331L5.3335 11.1666M14.6668 8.49998C14.6668 12.1819 11.6821 15.1666 8.00016 15.1666C4.31826 15.1666 1.3335 12.1819 1.3335 8.49998C1.3335 4.81808 4.31826 1.83331 8.00016 1.83331C11.6821 1.83331 14.6668 4.81808 14.6668 8.49998ZM6.3335 6.49998C6.3335 6.68407 6.18426 6.83331 6.00016 6.83331C5.81607 6.83331 5.66683 6.68407 5.66683 6.49998C5.66683 6.31588 5.81607 6.16665 6.00016 6.16665C6.18426 6.16665 6.3335 6.31588 6.3335 6.49998ZM10.3335 10.5C10.3335 10.6841 10.1843 10.8333 10.0002 10.8333C9.81607 10.8333 9.66683 10.6841 9.66683 10.5C9.66683 10.3159 9.81607 10.1666 10.0002 10.1666C10.1843 10.1666 10.3335 10.3159 10.3335 10.5Z" stroke="#9747FF" stroke-width="1.5" stroke-linecap="round" stroke-linejoin="round"/>
</svg>
