<svg width="22" height="20" viewBox="0 0 22 20" fill="none" xmlns="http://www.w3.org/2000/svg">
<path d="M21.99 0.853902C22.0327 0.597465 21.9365 0.337566 21.7371 0.170791C21.5377 0.00401511 21.2648 -0.0447061 21.02 0.0427329L0.486693 7.37606C0.210039 7.47486 0.0190471 7.72923 0.0013401 8.02247C-0.0163668 8.3157 0.142629 8.59121 0.405383 8.72258L6.27204 11.6559C6.50742 11.7736 6.78782 11.7561 7.00678 11.6102L11.8767 8.36356L8.96069 12.0086C8.8323 12.1691 8.77715 12.3761 8.80868 12.5792C8.84021 12.7823 8.95553 12.9628 9.12655 13.0768L14.2599 18.9435C14.4669 19.0815 14.7298 19.1051 14.9582 19.0062C15.1865 18.9073 15.3491 18.6993 15.39 18.4539L21.99 0.853902Z" fill="white"/>
</svg>
