<svg width="20" height="18" viewBox="0 0 20 18" fill="none" xmlns="http://www.w3.org/2000/svg">
<path d="M19.9697 0.622587C19.9519 0.35516 19.7758 0.124352 19.5225 0.0366924C19.2692 -0.0509667 18.9881 0.021569 18.8089 0.22082C18.3481 0.733027 17.7656 1.08011 17.1746 1.23836C16.3525 0.470868 15.2479 2.62443e-05 14.0341 2.62443e-05C11.429 2.62443e-05 9.31893 2.11486 9.31893 4.72146V5.30787C5.33062 4.99966 3.19782 1.96997 2.62232 0.432925C2.52929 0.184479 2.29782 0.0148312 2.03289 0.000940694C1.76796 -0.0129498 1.52001 0.13156 1.40152 0.368917C0.00589082 3.16449 -0.209142 5.87592 0.805194 8.18479C1.69375 10.2074 3.48072 11.8185 6.01341 12.8859C4.86236 13.7016 2.92504 14.6666 0.666715 14.6666C0.373026 14.6666 0.113932 14.8588 0.0287258 15.1399C-0.0564807 15.4209 0.0522737 15.7246 0.296521 15.8877C2.46198 17.3336 4.7315 17.3334 6.84242 17.3333L6.90702 17.3333C13.3879 17.3333 18.6399 12.0717 18.6399 5.58332V4.9456C19.1244 4.4531 19.5017 3.94895 19.7329 3.29718C19.9909 2.56993 20.0429 1.72665 19.9697 0.622587Z" fill="white"/>
</svg>
