<svg width="16" height="16" viewBox="0 0 16 16" fill="none" xmlns="http://www.w3.org/2000/svg">
<g id="video-recorder">
<g id="Icon">
<path d="M15 5.80812C15 5.3754 15 5.15903 14.9161 5.05884C14.8434 4.97191 14.7342 4.92578 14.6225 4.93475C14.4938 4.94509 14.3439 5.09808 14.044 5.40406L11.5 8L14.044 10.5959C14.3439 10.9019 14.4938 11.0549 14.6225 11.0653C14.7342 11.0742 14.8434 11.0281 14.9161 10.9412C15 10.841 15 10.6246 15 10.1919V5.80812Z" stroke="#0E0E2C" stroke-width="1.5" stroke-linecap="round" stroke-linejoin="round"/>
<path d="M1 6.42857C1 5.22846 1 4.6284 1.22889 4.17002C1.43022 3.76682 1.75148 3.439 2.14662 3.23356C2.59583 3 3.18389 3 4.36 3H8.14C9.31611 3 9.90417 3 10.3534 3.23356C10.7485 3.439 11.0698 3.76682 11.2711 4.17002C11.5 4.6284 11.5 5.22846 11.5 6.42857V9.57143C11.5 10.7715 11.5 11.3716 11.2711 11.83C11.0698 12.2332 10.7485 12.561 10.3534 12.7664C9.90417 13 9.31611 13 8.14 13H4.36C3.18389 13 2.59583 13 2.14662 12.7664C1.75148 12.561 1.43022 12.2332 1.22889 11.83C1 11.3716 1 10.7715 1 9.57143V6.42857Z" stroke="#0E0E2C" stroke-width="1.5" stroke-linecap="round" stroke-linejoin="round"/>
</g>
</g>
</svg>
