<svg width="32" height="32" viewBox="0 0 32 32" fill="none" xmlns="http://www.w3.org/2000/svg">
<path d="M24 13.5V11.2C24 10.0799 24 9.51984 23.782 9.09202C23.5903 8.7157 23.2843 8.40974 22.908 8.21799C22.4802 8 21.9201 8 20.8 8H9.2C8.0799 8 7.51984 8 7.09202 8.21799C6.7157 8.40973 6.40973 8.71569 6.21799 9.09202C6 9.51984 6 10.0799 6 11.2V20.8C6 21.9201 6 22.4802 6.21799 22.908C6.40973 23.2843 6.71569 23.5903 7.09202 23.782C7.51984 24 8.07989 24 9.2 24L20.8 24C21.9201 24 22.4802 24 22.908 23.782C23.2843 23.5903 23.5903 23.2843 23.782 22.908C24 22.4802 24 21.9201 24 20.8V18.5M19 16C19 15.5353 19 15.303 19.0384 15.1098C19.1962 14.3164 19.8164 13.6962 20.6098 13.5384C20.803 13.5 21.0353 13.5 21.5 13.5H23.5C23.9647 13.5 24.197 13.5 24.3902 13.5384C25.1836 13.6962 25.8038 14.3164 25.9616 15.1098C26 15.303 26 15.5353 26 16C26 16.4647 26 16.697 25.9616 16.8902C25.8038 17.6836 25.1836 18.3038 24.3902 18.4616C24.197 18.5 23.9647 18.5 23.5 18.5H21.5C21.0353 18.5 20.803 18.5 20.6098 18.4616C19.8164 18.3038 19.1962 17.6836 19.0384 16.8902C19 16.697 19 16.4647 19 16Z" stroke="#9747FF" stroke-width="2" stroke-linecap="round" stroke-linejoin="round"/>
</svg>
